<?xml version="1.0"?><svg id="Line" viewBox="0 0 200 200" xmlns="http://www.w3.org/2000/svg"><path d="M121.649,77.035H77.669a1.978,1.978,0,0,0-1.977,1.978v5.665a23.967,23.967,0,1,0,47.934,0V79.013A1.978,1.978,0,0,0,121.649,77.035Zm-1.978,7.643a20.012,20.012,0,0,1-40.024,0V80.99h40.024Z"/><path d="M169.513,138.4H161.9v-1.216a23.86,23.86,0,0,0-4.985-14.684V25.733a1.978,1.978,0,0,0-1.978-1.977H131.81a1.977,1.977,0,0,0-1.977,1.977V38.122A43.775,43.775,0,0,0,115.5,32.54a16.032,16.032,0,0,0-31.677.006,43.987,43.987,0,0,0-14.584,5.7V25.733a1.978,1.978,0,0,0-1.978-1.977H44.138a1.978,1.978,0,0,0-1.978,1.977v96.988a23.867,23.867,0,0,0-4.822,14.46v1.211h-8.16a1.978,1.978,0,0,0-1.978,1.977v22.525a11.063,11.063,0,0,0,4.37,8.708,13.071,13.071,0,0,0,5.768,2.564v4.6a1.977,1.977,0,0,0,1.978,1.977H159.923a1.978,1.978,0,0,0,1.978-1.977v-4.539a11.48,11.48,0,0,0,9.59-11.334V140.374A1.977,1.977,0,0,0,169.513,138.4ZM133.788,27.711h19.173v90.913a20.266,20.266,0,0,0-1.936-1.3V75.839A44.328,44.328,0,0,0,137.1,43.657c-1.062-1-2.171-1.934-3.315-2.816ZM146.174,115.3q-.816-.218-1.652-.36c-.107-.018-.215-.033-.322-.05-.58-.089-1.164-.161-1.755-.2l-.142-.006c-.319-.009-.64-.018-.968-.018H57.9c-.3,0-.583.008-.878.018l-.136,0c-.6.032-1.188.1-1.774.186-.116.017-.232.033-.348.052q-.843.139-1.665.354c-.109.029-.216.061-.324.092-.2.057-.408.108-.61.172V75.839A39.913,39.913,0,0,1,68.078,43.806c.094-.072.193-.135.288-.2l.013-.009a40.023,40.023,0,0,1,17.586-7.429,38.745,38.745,0,0,1,6.4-.518h14.515q.819,0,1.637.034a40.165,40.165,0,0,1,25.879,10.86h0a39.818,39.818,0,0,1,12.676,29.3v39.713c-.195-.062-.392-.112-.588-.167C146.379,115.356,146.277,115.325,146.174,115.3ZM99.669,22.95a12.08,12.08,0,0,1,11.673,8.966c-.115-.012-.231-.016-.346-.026-.476-.045-.952-.08-1.429-.109-.215-.013-.429-.029-.644-.039-.682-.031-1.364-.052-2.046-.052H92.362c-.681,0-1.357.02-2.029.05-.206.009-.41.025-.615.037q-.708.042-1.406.1c-.1.01-.211.013-.315.024A12.08,12.08,0,0,1,99.669,22.95ZM65.288,27.711V40.977A43.821,43.821,0,0,0,48.214,75.839v41.49a20.17,20.17,0,0,0-2.1,1.42V27.711ZM34.015,168.494a7.142,7.142,0,0,1-2.86-5.6V142.347h6.183v27.775A9.007,9.007,0,0,1,34.015,168.494Zm123.931,8.3H41.293V137.181c0-7.283,3.842-13.925,9.8-16.927a14.85,14.85,0,0,1,6.06-1.616c.252-.009.5-.016.751-.016h83.431c.289,0,.57.008.867.016a15.148,15.148,0,0,1,5.951,1.619l0,0c5.947,3,9.789,9.639,9.789,16.922Zm9.59-13.895a7.542,7.542,0,0,1-5.568,7.281V142.352h5.568Z"/></svg>