<svg width="24" height="24" viewBox="0 0 24 24" fill="none" xmlns="http://www.w3.org/2000/svg">
<path d="M0.861585 0C0.385745 0 0 0.413276 0 0.923077C0 1.43288 0.385745 1.84615 0.861585 1.84615H2.45343C2.64861 1.84615 2.8194 1.98674 2.86968 2.18877L5.80796 13.9937C3.95385 14.5089 2.58475 16.3139 2.58475 18.4615C2.58475 18.9713 2.9705 19.3846 3.44634 19.3846H21.5396C22.0155 19.3846 22.4012 18.9713 22.4012 18.4615C22.4012 17.9517 22.0155 17.5385 21.5396 17.5385H4.455C4.80983 16.4629 5.76726 15.6923 6.89268 15.6923H19.78C20.1095 15.6923 20.4102 15.491 20.5545 15.1736C21.8586 12.3065 22.9966 9.33665 23.9552 6.27847C24.0314 6.03516 24.0097 5.76882 23.8952 5.54338C23.7807 5.31794 23.5837 5.15376 23.3516 5.09025C17.8124 3.57467 12.0089 2.76923 6.03109 2.76923C5.62003 2.76923 5.20978 2.77304 4.80039 2.78063L4.53467 1.71308C4.28323 0.702877 3.42928 0 2.45343 0H0.861585Z" fill="#0F172A"/>
<path d="M2.58475 22.1538C2.58475 21.1342 3.35624 20.3077 4.30792 20.3077C5.25961 20.3077 6.03109 21.1342 6.03109 22.1538C6.03109 23.1734 5.25961 24 4.30792 24C3.35624 24 2.58475 23.1734 2.58475 22.1538Z" fill="#0F172A"/>
<path d="M17.2317 22.1538C17.2317 21.1342 18.0032 20.3077 18.9549 20.3077C19.9065 20.3077 20.678 21.1342 20.678 22.1538C20.678 23.1734 19.9065 24 18.9549 24C18.0032 24 17.2317 23.1734 17.2317 22.1538Z" fill="#0F172A"/>
</svg>
