<svg width="24" height="24" viewBox="0 0 24 24" fill="none" xmlns="http://www.w3.org/2000/svg">
<path fill-rule="evenodd" clip-rule="evenodd" d="M10.1538 1.84615C5.56563 1.84615 1.84615 5.56563 1.84615 10.1538C1.84615 14.7421 5.56563 18.4615 10.1538 18.4615C12.4482 18.4615 14.5239 17.5327 16.0283 16.0283C17.5327 14.5239 18.4615 12.4482 18.4615 10.1538C18.4615 5.56563 14.7421 1.84615 10.1538 1.84615ZM0 10.1538C0 4.54603 4.54603 0 10.1538 0C15.7617 0 20.3077 4.54603 20.3077 10.1538C20.3077 12.625 19.424 14.8911 17.9568 16.6514L23.7296 22.4242C24.0901 22.7847 24.0901 23.3692 23.7296 23.7296C23.3692 24.0901 22.7847 24.0901 22.4242 23.7296L16.6514 17.9568C14.8911 19.424 12.625 20.3077 10.1538 20.3077C4.54603 20.3077 0 15.7617 0 10.1538Z" fill="#0F172A"/>
</svg>
